<svg xmlns="http://www.w3.org/2000/svg" width="500" height="380" viewBox="0 0 800 769.767" xmlns:xlink="http://www.w3.org/1999/xlink" role="img" artist="Katerina Limpitsouni" source="https://undraw.co/"><g transform="translate(-88.149 -51.117)"><path d="M1051.459,695H329.733a28.794,28.794,0,0,1-28.761-28.761V307.048a28.794,28.794,0,0,1,28.761-28.761h721.726a28.794,28.794,0,0,1,28.761,28.761V666.237A28.794,28.794,0,0,1,1051.459,695Z" transform="translate(-212.823 -183.587)" fill="#f0f0f0"/><g transform="matrix(0.999, 0.035, -0.035, 0.999, 155.79, 205.252)"><path d="M705.758,391.874H27.047A27.078,27.078,0,0,1,0,364.827V27.047A27.077,27.077,0,0,1,27.047,0H705.758A27.077,27.077,0,0,1,732.8,27.047v337.78a27.078,27.078,0,0,1-27.047,27.047Z" transform="translate(0 0)" fill="#fff"/><path d="M705.758,391.874H27.047A27.078,27.078,0,0,1,0,364.827V27.047A27.077,27.077,0,0,1,27.047,0H705.758A27.077,27.077,0,0,1,732.8,27.047v337.78a27.078,27.078,0,0,1-27.047,27.047ZM27.047,3.919A23.154,23.154,0,0,0,3.919,27.047V364.827a23.155,23.155,0,0,0,23.128,23.129H705.758a23.155,23.155,0,0,0,23.128-23.128V27.047A23.154,23.154,0,0,0,705.758,3.919Z" transform="translate(0 0)" fill="#e4e4e4"/><path d="M0,178.071H542.72V85.05a73.654,73.654,0,0,0-22.591-52.464l-.147-.144c-9.694-9.726-42.088-34.41-75.606-32.317-17.706,1.1-32.864,9.635-45.053,25.362C361.38,74.458,311.54,57.928,285.207,43.716,262,31.188,238.3,25.308,214.761,26.244c-32.967,1.289-79.369,13.434-113.21,63.973C88.627,109.5,60.518,135.685,0,151.071Z" transform="translate(79.166 154.665)" fill="#6c63ff" style="isolation:isolate"/><path d="M574.174,277.926H1.791A1.791,1.791,0,0,1,0,276.135V1.791a1.791,1.791,0,1,1,3.583,0V274.343H574.174a1.791,1.791,0,1,1,0,3.583Z" transform="translate(78.42 56.974)" fill="#3f3d56"/><ellipse cx="10.748" cy="10.748" rx="10.748" ry="10.748" transform="translate(281.983 172.98)" fill="#3f3d56"/><ellipse cx="10.748" cy="10.748" rx="10.748" ry="10.748" transform="translate(492.781 144.873)" fill="#3f3d56"/><ellipse cx="10.748" cy="10.748" rx="10.748" ry="10.748" transform="translate(387.382 202.843)" fill="#3f3d56"/><ellipse cx="10.748" cy="10.748" rx="10.748" ry="10.748" transform="translate(176.583 218.654)" fill="#3f3d56"/><ellipse cx="10.748" cy="10.748" rx="10.748" ry="10.748" transform="translate(598.181 183.52)" fill="#3f3d56"/></g><rect width="277.342" height="29.108" rx="12" transform="translate(108.825 129.905)" fill="#6c63ff"/><g transform="translate(418.288 200.57)"><path d="M665.781,816.47l-18.832-5.858c-5.285-3.954-3.845-8.739-1.379-12.29a9.886,9.886,0,0,1,7.213-3.991,8.713,8.713,0,0,0,3.5-1.391,8.347,8.347,0,0,0,2.844-2.807,13.828,13.828,0,0,0,1.843-7.262s20.175-6.761,25.984-1a15.019,15.019,0,0,1,2.612,3.527,30.279,30.279,0,0,1,3.112,13.01s1.281,6.444,3.259,13.791S665.781,816.47,665.781,816.47Z" transform="translate(-470.392 -196.796)" fill="#2d293d"/><path d="M740.053,806.109,721.209,800.2c-5.285-3.954-3.832-8.739-1.379-12.29a9.825,9.825,0,0,1,7.213-3.979,6.615,6.615,0,0,0,2.1-.659,11.5,11.5,0,0,0,1.416-.745c5.089-3.063,4.674-10.069,4.674-10.069s20.175-6.761,26-1a14.854,14.854,0,0,1,2.05,2.575c3.735,5.919,3.662,14,3.662,14s1.294,6.456,3.259,13.791S740.053,806.109,740.053,806.109Z" transform="translate(-454.019 -199.091)" fill="#2d293d"/><path d="M684.107,781.83a15.027,15.027,0,0,1,2.612,3.527h0l-30.439,4.723a13.828,13.828,0,0,0,1.843-7.262S678.3,776.07,684.107,781.83Z" transform="translate(-464.164 -174.439)" opacity="0.1"/><path d="M761.167,774.035l.22,5.724c-4.443,8.019-27.522,7.189-34.357,3.515a11.528,11.528,0,0,0,1.416-.745c5.089-3.063,4.674-10.069,4.674-10.069s20.175-6.761,26-1a14.854,14.854,0,0,1,2.05,2.575Z" transform="translate(-448.565 -176.725)" opacity="0.1"/><path d="M784.675,835.863c-4.882,8.775-25.793,9.5-29.613,4.986s-48.888-177.9-67.927-226.369l-4.211,12.4s-.2,28.632,1.074,34.564,10.4,182.3,10.4,182.3l-31.281,4.882-27.486-165.5-.976-25.215s-9.154-48.575-11.143-73.229c-1.221-15.793-1.916-37.371-2.209-50.845-.171-7.567-.232-12.571-.232-12.571L732.89,505.26s.085,5.187,2.673,16.6c1.379,6.1,3.491,14.036,6.688,23.909,9.154,28.266,5.041,49.771,5.041,49.771l4.5,36.367s6.418,39.31,6.49,44.392C758.286,676.3,786.4,785.567,784.675,835.863Z" transform="translate(-475.305 -257.27)" fill="#090814"/><path d="M721.3,315.753l-1.587,9.569.281,4.211.2,3.112L709.4,334.182l-1.306-2.2h0c-2.441-3.979-7.384-12.071-8.934-13.291-1.039-.8-2.761-14.037-2.761-14.037s6.021-8.4,6.7-7.175C703.1,297.482,724.5,299.105,721.3,315.753Z" transform="translate(-455.319 -280.742)" fill="#ed9da0"/><path d="M721.115,331.892l-14.17,3.857-.391-2.111-1.025-5.7s5.37-7.762,13.767-2.441l.83,2.893Z" transform="translate(-453.305 -274.949)" fill="#e6e6e6"/><path d="M534.252,328.665l-14.939,8.787s-.635-1.22-1.5-2.832c-1.562-2.99-3.906-7.494-4.565-9.1-1-2.441-7.494-5.443-7.494-5.443-16.562-14.646,1.965-28.5,1.965-28.5,9.288-20.663,21.578,6.1,21.578,6.1s2.1,14.243,1.037,15.256-.915,4.882-.915,4.882a57.165,57.165,0,0,1,4.015,8.543C533.971,327.786,534.252,328.665,534.252,328.665Z" transform="translate(-498.87 -283.744)" fill="#ed9da0"/><path d="M532.468,325.368l-16.818,9.1-.488-3.661-.342-2.539s9.617-8.9,12.559-8.69a15.71,15.71,0,0,0,4.479-.183l.317,3.088Z" transform="translate(-495.353 -275.883)" fill="#e6e6e6"/><path d="M695.986,375.752s-74.449,11.314-60.658,6.237c9.605-3.539,13.242-9.874,13.779-16.769.439-5.773-1.22-11.936-3.442-17.2a74.45,74.45,0,0,0-7.213-13.254s55.959-33.649,45.67-4.638A45.575,45.575,0,0,0,681.4,343.8a38,38,0,0,0,1.989,13.657,40.85,40.85,0,0,0,12.6,18.295Z" transform="translate(-469.159 -276.117)" fill="#ed9da0"/><path d="M788.366,554.175s-94.746,20.04-105.108,17.319-62.769,2.673-62.769,2.673c-23.043,16.757-14.06-7.006-14.06-7.006s-2.551-12.132-.073-22.115a135.472,135.472,0,0,0,3.051-22.237s-1.123-15.573,1.6-19.32,5.089-29.865,5.089-29.865,1.916-17.782,1.513-21.664.207-14.841.207-14.841l2.673-18.307c-19.528-1.855-80.234-35.955-80.234-35.955-3.332-12.107-26.521-39.836-26.521-39.836a29.585,29.585,0,0,0-2.087-6.945c-1.721-4.1,21.346-13.315,21.346-13.315s18.234,20.638,22.091,26.216,16.745,15.744,16.745,15.744c1.932-.259,57.424,11.595,57.424,11.595s1.028-13.659,13.207-13.657,32.891,3.552,32.891,3.552c3.21-4.626,11.3-8.165,16.379-10.02a22.457,22.457,0,0,1,13.547-.744,17.536,17.536,0,0,1,5.456,2.441l15.964,14.475s24.617-11.119,24.849-10.85c-.1-.329-2.294-6.542-1.721-11.375s-3.478-9.239-3.478-9.239c8.238-22.7,29.487-4.772,29.487-4.772s2.807,12.119.9,16.879,2.636,14.475,2.221,17.087-.573,26.191-2.014,30.451-13.425,14.048-13.425,14.048-.207,14.841-5.333,23.616-.622,38.03-.622,38.03,6.1,22.664,12.852,29.694S788.366,554.175,788.366,554.175Z" transform="translate(-496.073 -275.142)" fill="#2f2e41"/><ellipse cx="30.435" cy="30.435" rx="30.435" ry="30.435" transform="translate(158.564 14.826)" fill="#ed9da0"/><path d="M277.855,391.184s30.15-21.535,14.357-47.378c-10.956-17.928-33.659-16.509-46.537-13.958a21.756,21.756,0,0,0-15.916,12.522c-2.154,5.025-2.154,10.05,6.461,10.05,17.228,0,8.614,12.921,8.614,12.921s11.486,2.871,8.614,12.921S277.855,391.184,277.855,391.184Z" transform="translate(-68.838 -320.788)" fill="#090814"/></g><ellipse cx="9.549" cy="9.762" rx="9.549" ry="9.762" transform="translate(108.825 53.117)" fill="#090814"/><ellipse cx="9.549" cy="9.762" rx="9.549" ry="9.762" transform="translate(138.151 53.13)" fill="#090814"/><ellipse cx="9.549" cy="9.762" rx="9.549" ry="9.762" transform="translate(167.478 53.117)" fill="#090814"/><g transform="translate(829.71 51.117)"><path d="M925.909,204.039H893.18a2.479,2.479,0,1,1,0-4.957h32.729a2.479,2.479,0,1,1,0,4.957Z" transform="translate(-890.701 -199.082)" fill="#090814"/><path d="M925.909,211.655H893.18a2.479,2.479,0,1,1,0-4.957h32.729a2.479,2.479,0,1,1,0,4.957Z" transform="translate(-890.701 -197.403)" fill="#090814"/><path d="M925.909,219.27H893.18a2.479,2.479,0,1,1,0-4.957h32.729a2.479,2.479,0,1,1,0,4.957Z" transform="translate(-890.701 -195.724)" fill="#090814"/></g></g></svg>
